<?xml version="1.0" encoding="UTF-8"?>
<svg id="Layer_1" xmlns="http://www.w3.org/2000/svg" version="1.1" viewBox="0 0 200 200">
  <!-- Generator: Adobe Illustrator 29.5.1, SVG Export Plug-In . SVG Version: 2.1.0 Build 141)  -->
  <defs>
    
  </defs>
  <g>
    <path fill="#ebbe25" d="M100,183.5c-46.04,0-83.5-37.46-83.5-83.5,0-.72,0-1.44.03-2.16.55-21.84,9.48-42.29,25.14-57.58,15.69-15.32,36.4-23.75,58.33-23.75s42.64,8.44,58.33,23.75c15.66,15.29,24.59,35.74,25.14,57.59.02.71.03,1.43.03,2.15,0,46.04-37.46,83.5-83.5,83.5Z"/>
    <path fill="#ffffff" d="M100,20c43.49,0,78.88,34.71,79.97,77.93.02.68.03,1.37.03,2.06,0,44.18-35.81,80-79.99,80S20.01,144.18,20.01,100c0-.69,0-1.38.03-2.06,1.09-43.22,36.48-77.93,79.97-77.93M100,13c-22.85,0-44.43,8.79-60.78,24.75-16.32,15.93-25.62,37.24-26.19,60.01-.02.73-.03,1.48-.03,2.24,0,47.97,39.03,87,86.99,87s86.99-39.03,86.99-87c0-.76,0-1.51-.03-2.26-.57-22.75-9.88-44.06-26.19-59.99-16.34-15.96-37.93-24.75-60.78-24.75h0Z"/>
  </g>
  <path fill="#221400" d="M154.16,89.94v-20.14c0-.67-.35-1.28-.93-1.61l-17.43-10.06c-.58-.33-1.28-.33-1.86,0l-14.65,8.45v-16.9c0-.42-.15-.81-.4-1.13-.05-.06-.09-.13-.14-.18,0,0-.01,0-.02-.01-.11-.11-.23-.2-.37-.28l-17.43-10.08c-.58-.33-1.29-.33-1.86,0l-17.43,10.08c-.14.08-.26.18-.37.28,0,0-.01,0-.02.01-.06.06-.09.12-.14.18-.25.32-.4.71-.4,1.13v16.9l-14.65-8.45c-.58-.33-1.28-.33-1.86,0l-17.43,10.06c-.58.33-.93.95-.93,1.61v20.14c0,.66.35,1.28.93,1.61l14.65,8.46-14.65,8.46c-.14.08-.26.18-.37.28,0,0-.01,0-.02.01-.06.06-.09.12-.14.18-.25.32-.4.71-.4,1.13v20.12c0,.66.35,1.28.93,1.61l17.43,10.06c.29.17.61.25.93.25s.64-.08.93-.25l14.66-8.46v16.78s0,.06,0,.09c-.02.68.34,1.32.93,1.67l17.43,10.06c.29.17.61.25.93.25s.64-.08.93-.25l17.43-10.06c.58-.33.93-.95.93-1.61v-16.92l14.65,8.46c.29.17.61.25.93.25s.64-.08.93-.25l17.43-10.06c.58-.33.93-.95.93-1.61v-20.12c0-.42-.15-.81-.4-1.13-.05-.06-.09-.13-.14-.18,0,0-.01,0-.02-.01-.11-.11-.23-.2-.37-.28l-14.64-8.47,14.64-8.45c.58-.33.93-.95.93-1.61ZM105.3,121.05l-3.44-1.99v-15.84l14.64,8.46s0,0,0,0l15.78,9.1.73.42v15.83l-27.71-15.99ZM84.43,69.8v-16.9l13.71,7.91v35.96l-13.71-7.91v-19.06ZM115.57,69.8v19.06l-13.71,7.91v-35.96l13.71-7.91v16.9ZM82.25,92.27l.32-.19,13.71,7.91-31.15,17.99-13.71-7.91,30.83-17.8ZM134.87,117.99l-31.15-17.99,13.71-7.91.32.19,30.83,17.8-13.71,7.91ZM134.87,61.89l13.71,7.91-29.29,16.91v-15.84l15.58-8.99ZM100,41.75l13.71,7.93-13.71,7.91-13.71-7.91,13.71-7.93ZM65.13,61.89l15.58,8.99v15.84l-29.29-16.91,13.71-7.91ZM49.56,73.02l29.29,16.91-13.72,7.91-15.57-8.99v-15.84ZM49.56,113.3l13.71,7.91v15.83l-13.71-7.91v-15.83ZM66.99,121.21l6.16-3.56,24.99-14.43v15.84l-3.44,1.99-27.71,15.99v-15.83ZM84.44,131.27l13.7-7.91v16.89h0v16.92l-13.7-7.91v-18ZM115.57,149.26l-13.71,7.91v-16.81c0-.07,0-.14,0-.21v-16.79l13.71,7.91v17.99ZM136.73,137.04v-15.83l13.71-7.91v15.83l-13.71,7.91ZM150.44,88.86l-15.57,8.99-13.72-7.91,29.29-16.91v15.84Z"/>
</svg>