<?xml version="1.0" encoding="UTF-8"?>
<svg id="Layer_1" xmlns="http://www.w3.org/2000/svg" version="1.1" viewBox="0 0 68.61 69.75">
  <!-- Generator: Adobe Illustrator 29.0.1, SVG Export Plug-In . SVG Version: 2.1.0 Build 192)  -->
  <defs>
    <style>
      .st0 {
        fill: #efc416;
      }
    </style>
  </defs>
  <path class="st0" d="M17.59,58c.33,2.28-1.26,4.39-3.53,4.71-1.84.27-3.42,1.43-4.23,3.12-.71,1.5-2.21,2.38-3.77,2.38-.6,0-1.21-.13-1.79-.4-2.08-.99-2.96-3.47-1.98-5.55,2.01-4.22,5.96-7.13,10.57-7.8,2.27-.34,4.39,1.25,4.71,3.53h0ZM13.47,32.1c-4.6,0-8.33,3.73-8.33,8.33s3.73,8.33,8.33,8.33,8.33-3.73,8.33-8.33-3.73-8.33-8.33-8.33ZM55.73,54.47c-2.27-.33-4.39,1.25-4.71,3.53-.33,2.28,1.26,4.39,3.53,4.71,1.84.27,3.42,1.43,4.23,3.12.71,1.5,2.21,2.38,3.77,2.38.6,0,1.21-.13,1.79-.4,2.08-.99,2.96-3.47,1.98-5.55-2.01-4.22-5.96-7.13-10.57-7.8h0ZM63.47,40.44c0-4.6-3.73-8.33-8.33-8.33s-8.33,3.73-8.33,8.33,3.73,8.33,8.33,8.33,8.33-3.73,8.33-8.33ZM42.64,32.1c0-4.6-3.73-8.33-8.33-8.33s-8.33,3.73-8.33,8.33,3.73,8.33,8.33,8.33,8.33-3.73,8.33-8.33ZM34.3,46c-7.66,0-13.89,6.23-13.89,13.89v4.17c0,2.3,1.87,4.17,4.17,4.17s4.17-1.87,4.17-4.17v-4.17c0-3.06,2.49-5.56,5.56-5.56s5.56,2.49,5.56,5.56v4.17c0,2.3,1.87,4.17,4.17,4.17s4.17-1.87,4.17-4.17v-4.17c0-7.66-6.23-13.89-13.89-13.89ZM65.8,19.19l-21.7-14.64c-5.95-4.01-13.64-4.02-19.6,0L2.8,19.19c-1.91,1.29-2.41,3.88-1.12,5.78,1.29,1.91,3.88,2.41,5.78,1.12l21.7-14.64c3.12-2.11,7.16-2.1,10.28,0l21.7,14.64c.71.48,1.53.71,2.33.71,1.34,0,2.65-.64,3.46-1.84,1.29-1.91.78-4.5-1.12-5.78h0Z"/>
</svg>