<?xml version="1.0" encoding="UTF-8"?>
<svg id="Layer_1" xmlns="http://www.w3.org/2000/svg" version="1.1" viewBox="0 0 62.65 62.04">
  <!-- Generator: Adobe Illustrator 29.0.1, SVG Export Plug-In . SVG Version: 2.1.0 Build 192)  -->
  <defs>
    <style>
      .st0 {
        fill: #efc416;
      }
    </style>
  </defs>
  <path class="st0" d="M56.61,14.96v-7.95c0-2.1-1.7-3.79-3.79-3.79s-3.79,1.7-3.79,3.79v2.75l-9.92-6.69C34.38-.12,28.27-.12,23.55,3.07L7.11,14.16c-3.84,2.59-6.13,6.9-6.13,11.53v21.78c0,7.67,6.24,13.91,13.91,13.91h7.58c2.09,0,3.79-1.7,3.79-3.79v-20.23c0-.7.57-1.26,1.26-1.26h7.58c.7,0,1.26.57,1.26,1.26v20.23c0,2.1,1.7,3.79,3.79,3.79h7.58c7.67,0,13.91-6.24,13.91-13.91v-21.78c0-4.18-1.87-8.1-5.06-10.72h0ZM54.08,47.46c0,3.48-2.83,6.32-6.32,6.32h-3.79v-16.43c0-4.88-3.97-8.85-8.85-8.85h-7.58c-4.88,0-8.85,3.97-8.85,8.85v16.43h-3.79c-3.49,0-6.32-2.84-6.32-6.32v-21.78c0-2.11,1.04-4.06,2.79-5.24l16.43-11.09c2.15-1.45,4.92-1.45,7.07,0l16.43,11.09c1.74,1.18,2.79,3.14,2.79,5.24v21.78h0Z"/>
</svg>