<?xml version="1.0" encoding="UTF-8"?>
<svg id="Layer_1" xmlns="http://www.w3.org/2000/svg" version="1.1" viewBox="0 0 200 200">
  <!-- Generator: Adobe Illustrator 29.5.1, SVG Export Plug-In . SVG Version: 2.1.0 Build 141)  -->
  <defs>
    <style>
      .st0 {
        fill: #ebbe25;
      }
    </style>
  </defs>
  <path class="st0" d="M157.83,61.45h-19.28c0-21.26-17.29-38.55-38.55-38.55s-38.55,17.29-38.55,38.55h-19.28c-10.63,0-19.28,8.65-19.28,19.28v64.26c0,17.72,14.41,32.13,32.13,32.13h51.4c3.55,0,6.43-2.88,6.43-6.43s-2.88-6.43-6.43-6.43h-51.4c-10.63,0-19.28-8.65-19.28-19.28v-64.26c0-3.54,2.89-6.43,6.43-6.43h19.28v12.85c0,3.55,2.88,6.43,6.43,6.43s6.43-2.88,6.43-6.43v-12.85h51.4v12.85c0,3.55,2.88,6.43,6.43,6.43s6.43-2.88,6.43-6.43v-12.85h19.28c3.54,0,6.43,2.89,6.43,6.43v38.55c0,3.55,2.88,6.43,6.43,6.43s6.43-2.88,6.43-6.43v-38.55c0-10.63-8.65-19.28-19.28-19.28ZM74.3,61.45c0-14.17,11.53-25.7,25.7-25.7s25.7,11.53,25.7,25.7h-51.4ZM177.11,151.4c0,3.55-2.88,6.43-6.43,6.43h-38.55c-3.55,0-6.43-2.88-6.43-6.43s2.88-6.43,6.43-6.43h38.55c3.55,0,6.43,2.88,6.43,6.43Z"/>
</svg>